<svg xmlns="http://www.w3.org/2000/svg" viewBox="0 0 16.933 16.933" width="64" height="64"><style>
path { fill: #00ffbc; }
@media (prefers-color-scheme: light) { path { fill: #008b65; } }
</style><path d="M2.117 2.117v9.525a1.587 1.587 45 0 0 1.587 1.587 1.587 1.587 135 0 0 1.588-1.587V8.467a1.587 1.587 135 0 1 1.587-1.588h3.175a1.587 1.587 135 0 0 1.588-1.587 1.587 1.587 45 0 0-1.588-1.588H6.88a1.587 1.587 45 0 1-1.587-1.587A1.587 1.587 45 0 0 3.704.529a1.587 1.587 135 0 0-1.587 1.588zM13.23 6.88a1.587 1.587 135 0 0-1.588 1.587v3.175a1.587 1.587 45 0 0 1.587 1.587 1.587 1.587 135 0 0 1.588-1.587V8.467a1.587 1.587 45 0 0-1.588-1.588z"/><path d="M5.292 14.817a1.587 1.587 135 0 1 1.587-1.588h3.175a1.587 1.587 45 0 1 1.588 1.588 1.587 1.587 135 0 1-1.588 1.587H6.88a1.587 1.587 45 0 1-1.587-1.587z"/></svg>
