<?xml version="1.0" standalone="no"?>
<!DOCTYPE svg PUBLIC "-//W3C//DTD SVG 20010904//EN"
 "http://www.w3.org/TR/2001/REC-SVG-20010904/DTD/svg10.dtd">
<svg version="1.0" xmlns="http://www.w3.org/2000/svg"
 width="700.000000pt" height="700.000000pt" viewBox="0 0 700.000000 700.000000"
 preserveAspectRatio="xMidYMid meet">
<metadata>
Created by potrace 1.14, written by Peter Selinger 2001-2017
</metadata>
<g transform="translate(0.000000,700.000000) scale(0.100000,-0.100000)"
fill="#000000" stroke="none">
<path d="M1430 6774 c-285 -50 -508 -275 -548 -554 -4 -30 -7 -971 -7 -2090 1
-1883 3 -2040 18 -2099 79 -295 337 -498 636 -499 252 -1 476 140 594 374 62
123 61 107 63 924 2 634 5 755 18 812 59 253 244 438 501 499 36 9 257 13 780
14 402 1 750 5 775 9 126 21 258 88 352 180 376 363 189 1003 -322 1110 -64
13 -185 15 -800 16 -763 0 -776 1 -891 46 -62 24 -166 94 -218 145 -75 75
-166 235 -175 309 -1 8 -5 31 -9 50 -3 19 -9 74 -11 122 -6 98 -10 119 -38
202 -61 177 -216 335 -390 396 -30 10 -68 22 -84 26 -36 8 -210 14 -244 8z"/>
<path d="M5342 4143 c-262 -54 -454 -245 -517 -514 -10 -47 -13 -208 -11 -801
1 -682 3 -748 19 -807 47 -165 141 -292 287 -386 116 -75 231 -106 370 -101
107 4 164 19 265 66 173 82 304 244 351 433 17 66 18 134 18 792 0 396 -3 743
-7 770 -26 185 -138 357 -298 458 -30 19 -72 42 -94 51 -110 47 -270 63 -383
39z"/>
<path d="M2725 1523 c-76 -18 -178 -60 -234 -97 -129 -84 -211 -188 -267 -338
-24 -65 -28 -87 -28 -198 -1 -69 2 -136 6 -150 3 -14 9 -38 13 -55 14 -53 74
-166 118 -218 74 -91 148 -147 243 -190 58 -25 167 -54 209 -55 11 -1 341 -1
734 -1 766 -1 773 0 894 51 69 29 157 89 208 141 78 79 154 217 176 317 4 19
7 91 7 160 -1 111 -4 133 -29 200 -73 196 -217 338 -414 408 l-76 27 -770 1
c-423 1 -779 0 -790 -3z"/>
</g>
</svg>
